# xmcd CD database file
#
# Track frame offsets:
#	183
#	22000
#	40055
#	66863
#	92520
#	113558
#	135890
#	158133
#	176315
#	190023
#	208130
#	220370
#	237085
#	254980
#
# Disc length: 3647 seconds
#
# Revision: 0
# Processed by: cddbd v1.5.2PL0 Copyright (c) Steve Scherf et al.
# Submitted via: CDex 1.70beta2
#
DISCID=bd0e3d0e
DTITLE=Lanfranco Malaguti - Azzurro
DYEAR=1991
DGENRE=Jazz
TTITLE0=Nel blu dipinto di blu [trio]
TTITLE1=Metti una sera a cena [trio]
TTITLE2=Roma nun fa la stupida stasera [trio]
TTITLE3=Azzurro [trio]
TTITLE4=Vedrai, vedrai [trio]
TTITLE5=Senza fine [trio]
TTITLE6=Teresa/Io che amo solo te [trio]
TTITLE7=Nel blu dipinto di blu [solo]
TTITLE8=Metti una sera a cena [solo]
TTITLE9=Roma nun fa la stupida stasera [solo]
TTITLE10=Azzurro [solo]
TTITLE11=Vedrai, vedrai [solo]
TTITLE12=Senza fine [solo]
TTITLE13=Teresa/Io che amo solo te [solo]
EXTD=YEAR: 1991
EXTT0=
EXTT1=
EXTT2=
EXTT3=
EXTT4=
EXTT5=
EXTT6=
EXTT7=
EXTT8=
EXTT9=
EXTT10=
EXTT11=
EXTT12=
EXTT13=
PLAYORDER=
